<?xml version="1.0" encoding="UTF-8" standalone="no"?>
<!-- Created with Inkscape (http://www.inkscape.org/) -->

<svg
   width="92.277mm"
   height="118.3644mm"
   viewBox="0 0 92.277001 118.3644"
   version="1.1"
   id="svg5"
   inkscape:version="1.1 (c68e22c387, 2021-05-23)"
   sodipodi:docname="RedBloon.svg"
   xmlns:inkscape="http://www.inkscape.org/namespaces/inkscape"
   xmlns:sodipodi="http://sodipodi.sourceforge.net/DTD/sodipodi-0.dtd"
   xmlns:xlink="http://www.w3.org/1999/xlink"
   xmlns="http://www.w3.org/2000/svg"
   xmlns:svg="http://www.w3.org/2000/svg">
  <sodipodi:namedview
     id="namedview7"
     pagecolor="#ffffff"
     bordercolor="#999999"
     borderopacity="1"
     inkscape:pageshadow="0"
     inkscape:pageopacity="0"
     inkscape:pagecheckerboard="0"
     inkscape:document-units="mm"
     showgrid="false"
     inkscape:zoom="0.25"
     inkscape:cx="-662"
     inkscape:cy="14"
     inkscape:window-width="1920"
     inkscape:window-height="1009"
     inkscape:window-x="-8"
     inkscape:window-y="-8"
     inkscape:window-maximized="1"
     inkscape:current-layer="layer1"
     showborder="true"
     width="92.277mm" />
  <defs
     id="defs2">
    <linearGradient
       inkscape:collect="always"
       id="linearGradient11053">
      <stop
         style="stop-color:#a80201;stop-opacity:1;"
         offset="0"
         id="stop11049" />
      <stop
         style="stop-color:#f03435;stop-opacity:1"
         offset="1"
         id="stop11051" />
    </linearGradient>
    <linearGradient
       inkscape:collect="always"
       id="linearGradient3495">
      <stop
         style="stop-color:#f64243;stop-opacity:1"
         offset="0"
         id="stop3491" />
      <stop
         style="stop-color:#ec1112;stop-opacity:1"
         offset="0.56884849"
         id="stop4237" />
      <stop
         style="stop-color:#f03738;stop-opacity:1"
         offset="1"
         id="stop3493" />
    </linearGradient>
    <linearGradient
       inkscape:collect="always"
       xlink:href="#linearGradient3495"
       id="linearGradient3497"
       x1="140.57039"
       y1="115.52003"
       x2="89.20813"
       y2="172.10863"
       gradientUnits="userSpaceOnUse"
       gradientTransform="translate(-67.024333,-92.26827)" />
    <linearGradient
       inkscape:collect="always"
       xlink:href="#linearGradient11053"
       id="linearGradient11055"
       x1="108.00006"
       y1="210.39301"
       x2="110.10926"
       y2="200.70029"
       gradientUnits="userSpaceOnUse"
       gradientTransform="translate(-67.024333,-92.26827)" />
  </defs>
  <g
     inkscape:groupmode="layer"
     id="layer2"
     inkscape:label="Layer 2">
    <path
       style="fill:url(#linearGradient3497);fill-opacity:1;stroke:#000000;stroke-width:0.264583px;stroke-linecap:butt;stroke-linejoin:miter;stroke-opacity:1"
       d="m 38.521587,107.68888 -2.69491,0.60082 0.46585,-5.80744 L 24.473051,93.78491 12.111985,80.65924 c 0,0 -5.3522159,-8.15576 -6.2442509,-11.21417 -0.892035,-3.0584 -4.460179,-11.59646 -4.460179,-11.59646 l 0.127434,-8.66549 v -9.43009 l 1.911506,-7.26372 3.695576,-10.32213 6.3716849,-7.77346 6.371682,-5.9893805 6.116818,-2.8035407 9.557531,-3.185842 10.95929,-1.401771 11.46903,1.529205 10.1947,3.823009 6.75398,4.7150502 6.88142,7.51859 4.71505,8.79292 2.80354,8.41062 1.91151,9.93983 -0.63717,6.49912 -1.91151,9.55753 -2.2938,6.88141 -4.46018,7.64603 -2.42124,5.47964 -4.46018,5.73452 -4.96992,5.22478 -6.62655,6.24425 -7.64602,4.96991 -7.00885,6.40354 z"
       id="path2509"
       sodipodi:nodetypes="cccccscccccccccccccccccccccccccccc"
       inkscape:export-filename="C:\Users\Gilli Galli\path2509.png"
       inkscape:export-xdpi="96"
       inkscape:export-ydpi="96" />
    <path
       style="fill:#f5f5f5;fill-opacity:0.755245;stroke:#000000;stroke-width:0.264583px;stroke-linecap:butt;stroke-linejoin:miter;stroke-opacity:0"
       d="m 65.062557,42.03778 c 1.91791,6.64951 6.05122,11.22322 6.05122,11.22322 0,0 5.09735,1.78407 6.37169,-1.52921 1.27433,-3.31327 -15.80178,-39.12214 -22.6832,-37.4655 -6.88142,1.65664 -3.86174,1.97819 -2.67611,4.20531 1.33353,2.50494 10.60262,14.24385 12.9364,23.56618 z"
       id="path6544"
       sodipodi:nodetypes="ccsssc"
       inkscape:export-filename="C:\Users\Gilli Galli\path2509.png"
       inkscape:export-xdpi="96"
       inkscape:export-ydpi="96" />
    <path
       style="fill:#f5f5f5;fill-opacity:0.76;stroke:#000000;stroke-width:0.264583px;stroke-linecap:butt;stroke-linejoin:miter;stroke-opacity:0"
       d="m 71.113777,58.86808 c 1.60322,-2.60523 5.49599,-3.35723 7.83883,-2.45613 2.34284,0.9011 -0.36044,6.12742 -2.70328,6.12742 -2.34284,0 -6.40988,0.088 -5.13555,-3.67129 z"
       id="path8194"
       sodipodi:nodetypes="cssc"
       inkscape:export-filename="C:\Users\Gilli Galli\path2509.png"
       inkscape:export-xdpi="96"
       inkscape:export-ydpi="96" />
  </g>
  <g
     inkscape:groupmode="layer"
     id="layer4"
     inkscape:label="Layer 4">
    <path
       style="fill:url(#linearGradient11055);fill-opacity:1;stroke:#a80201;stroke-width:0.242556px;stroke-linecap:butt;stroke-linejoin:miter;stroke-opacity:0"
       d="m 38.234857,106.66941 c 0,0 -2.72604,1.15651 -2.72604,2.47823 0,1.32172 0.24782,3.88255 0.49564,4.46081 0.24782,0.57825 1.56955,2.31301 2.31301,2.56082 0.74348,0.24783 3.3043,1.15651 4.13038,1.15651 0.82608,0 2.64344,0 3.96516,-0.41304 1.32171,-0.41303 1.89997,-0.33042 2.2304,-1.56954 0.33043,-1.23911 0.57825,-2.39562 0.49564,-4.04776 -0.0826,-1.65216 -0.0826,-1.73477 -1.32171,-2.23041 -1.23911,-0.49565 -4.22268,-2.25779 -4.22268,-2.25779 z"
       id="path697"
       sodipodi:nodetypes="csssssssscc"
       inkscape:export-filename="C:\Users\Gilli Galli\path2509.png"
       inkscape:export-xdpi="96"
       inkscape:export-ydpi="96" />
  </g>
  <g
     inkscape:label="Layer 1"
     inkscape:groupmode="layer"
     id="layer1">
    <path
       style="fill:#790002;fill-opacity:1;stroke-width:0.264583"
       d="m 38.748716,117.64724 c -2.13027,-0.4177 -1.63379,-0.37282 -2.43955,-0.95645 -0.43921,-0.31812 -1.02812,-0.85268 -1.19639,-1.36253 -0.16826,-0.50985 -0.53289,-1.31166 -0.81027,-1.78179 -0.63957,-1.08398 -1.09545,-3.86463 -0.86246,-5.26054 0.13022,-0.78015 0.46686,-1.33856 1.23801,-2.05359 1.44401,-1.33892 1.42207,-2.10618 -0.0984,-3.4406 -0.63666,-0.55875 -1.57427,-1.23808 -2.083597,-1.50961 -0.509323,-0.27153 -1.163886,-0.75668 -1.454584,-1.07811 -0.290697,-0.321492 -0.836287,-0.743612 -1.212418,-0.938122 -0.376132,-0.1945 -1.20985,-0.77299 -1.852708,-1.28552 -0.642856,-0.51253 -1.680808,-1.32346 -2.306556,-1.80208 -1.267605,-0.96954 -11.073866,-10.65348 -12.426671,-12.27166 -1.896876,-2.26898 -2.386604,-2.91943 -2.78694,-3.70159 -0.229583,-0.44855 -0.841404,-1.32301 -1.359604,-1.94326 -0.518201,-0.62025 -0.942183,-1.22355 -0.942183,-1.34068 0,-0.11713 -0.416719,-0.8322 -0.926042,-1.58906 -0.509323,-0.75685 -0.926042,-1.51926 -0.926042,-1.69425 0,-0.17499 -0.336123,-0.78811 -0.746942,-1.36248 -0.410818,-0.57437 -0.898328,-1.58009 -1.083356,-2.23493 -0.185028,-0.65485 -0.668919,-1.78594 -1.075312,-2.51354 -0.406394,-0.72761 -0.873276,-2.11744 -1.037515,-3.08853 -0.164239,-0.97108 -0.596091,-2.55592 -0.959672,-3.52186 -0.56102525,-1.49051 -0.72704325,-2.67525 -1.09713725,-7.82941 -0.373978,-5.20825 -0.389519,-6.7414 -0.109125,-10.76563 0.42711,-6.12991 0.712438,-8.07972 1.37136125,-9.37132 0.298304,-0.58472 0.656915,-1.79526 0.796914,-2.69007 0.139998,-0.89482 0.600734,-2.34131 1.023858,-3.21444 0.423123,-0.87312 1.081688,-2.24234 1.463478,-3.04271 1.219323,-2.55612 2.102847,-4.17873 2.546022,-4.67581 0.237113,-0.26596 0.642175,-0.90028 0.900138,-1.4096 0.57669,-1.13862 0.828907,-1.42093 5.023143,-5.6224 1.852196,-1.85539 3.504529,-3.3734315 3.671852,-3.3734315 0.167323,0 0.718305,-0.34032 1.224403,-0.7562797 0.506099,-0.41596 1.404395,-1.002566 1.996213,-1.303579 0.591819,-0.301012 1.22606,-0.728066 1.409426,-0.949008 0.183365,-0.220942 0.949306,-0.600257 1.702091,-0.842923 0.752785,-0.242665 1.849392,-0.715619 2.436905,-1.051007 0.587513,-0.335389 1.837669,-0.802659 2.778125,-1.038379 0.940456,-0.23572 2.3758,-0.720063 3.189655,-1.076318 1.108028,-0.485027 2.30436,-0.717361 4.7625,-0.92490353 1.80552,-0.152441 4.17573,-0.395955 5.26714,-0.541144 4.02873,-0.535937 6.17975,-0.571929 8.99583,-0.150523 1.52797,0.228649 4.12783,0.541635 5.77747,0.69552502 2.27557,0.21228151 3.31171,0.43808851 4.29379,0.93574351 0.71194,0.360769 1.92208,0.783864 2.6892,0.940211 0.76711,0.156348 1.96123,0.627553 2.6536,1.047122 0.69236,0.419569 1.71525,0.885752 2.27308,1.035961 0.55784,0.150208 1.24151,0.524603 1.51928,0.831987 0.27778,0.307384 1.04082,0.830799 1.69567,1.163143 0.65484,0.332345 1.41743,0.855262 1.69465,1.162032 0.27721,0.3067697 0.64692,0.5577597 0.82156,0.5577597 0.39027,0 7.00879,6.4028415 7.00879,6.7803915 0,0.14911 0.30924,0.55975 0.6872,0.91254 0.37797,0.35279 0.90806,1.07202 1.17798,1.59829 0.26993,0.52628 0.77783,1.30018 1.12867,1.7198 0.35085,0.41961 0.72973,1.06059 0.84196,1.42439 0.11223,0.3638 0.54284,1.13771 0.95692,1.71979 0.41407,0.58208 0.91495,1.59411 1.11306,2.24896 0.19811,0.65484 0.6626,1.63286 1.03221,2.17338 0.3696,0.54052 0.75566,1.55255 0.85791,2.24896 0.10225,0.69641 0.5215,2.10938 0.93167,3.13993 0.41017,1.03054 0.82663,2.69742 0.92546,3.70416 0.2672,2.72193 0.92536,7.0067 1.22177,7.95411 0.14448,0.46177 0.15083,0.81504 0.16223,1.11191 0.0349,0.90951 0.0825,1.55195 0.0506,2.147 -0.11143,2.08123 -0.20745,1.46263 -0.3787,2.8098 -0.11791,0.9273 -0.43714,2.65602 -0.92686,7.2545 -0.17757,1.66733 -0.54658,3.41287 -0.92291,4.36562 -0.34488,0.87313 -0.81698,2.41829 -1.04911,3.43369 -0.23213,1.01539 -0.69758,2.32508 -1.03432,2.91041 -0.33675,0.58533 -0.7578,1.65955 -0.93567,2.38716 -0.17787,0.7276 -0.67169,1.84934 -1.09736,2.49275 -0.42568,0.64342 -0.77396,1.37419 -0.77396,1.62396 0,0.24976 -0.3979,1.03302 -0.88423,1.74058 -0.48632,0.70755 -1.03103,1.73202 -1.21047,2.2766 -0.17943,0.54458 -0.4836,1.08036 -0.67592,1.19063 -0.19233,0.11026 -0.6223,0.67673 -0.9555,1.25881 -0.3332,0.58208 -0.94082,1.49219 -1.35027,2.02245 -0.40944,0.53026 -0.74445,1.09381 -0.74445,1.25232 0,0.15851 -0.40769,0.73669 -0.90598,1.28484 -0.49829,0.54815 -1.94901,2.18726 -3.22382,3.64247 -5.06352,5.78008 -11.96003,11.713962 -15.97919,13.748702 -0.50896,0.25766 -1.16351,0.67777 -1.45455,0.93356 -0.29104,0.25579 -1.12448,0.66154 -1.85208,0.90166 -1.68341,0.55555 -3.69274,2.02388 -4.2535,3.10828 -0.63764,1.23305 -0.91403,4.88535 -1.02052,6.47254 -0.10394,1.54908 -0.5415,1.75505 -1.11464,2.47187 -0.13398,0.16756 -1.28583,0.77116 -1.68733,0.81636 -0.45777,0.0515 -1.3423,0.40573 -2.90495,0.42381 -0.88122,0.0102 -2.95449,-0.0839 -3.88425,-0.26626 z m 14.81004,-14.0047 c 0.20973,0 0.98712,-0.41672 1.72755,-0.92604 0.74042,-0.50932 1.48169,-0.9272 1.64726,-0.92861 0.16558,-0.001 0.82382,-0.41813 1.46276,-0.92604 0.63894,-0.50791 1.25222,-0.923542 1.36285,-0.923542 1.179,0 12.40235,-10.28505 14.21911,-13.03035 0.36127,-0.54592 0.74833,-0.99257 0.86014,-0.99257 0.11181,0 0.43763,-0.39717 0.72403,-0.88259 0.28641,-0.48543 0.78368,-1.17004 1.10505,-1.52136 0.839,-0.9172 2.29359,-3.11001 2.88087,-4.34293 0.27727,-0.58208 0.75818,-1.2856 1.06869,-1.56337 0.31051,-0.27777 0.69435,-0.987 0.85297,-1.57606 0.15861,-0.58907 0.60833,-1.55242 0.99937,-2.1408 0.39103,-0.58837 0.87452,-1.54602 1.07442,-2.1281 0.19989,-0.58208 0.58745,-1.36133 0.86123,-1.73166 0.44199,-0.59788 1.02574,-2.279 1.46584,-4.22147 0.0824,-0.3638 0.22762,-0.72099 0.32266,-0.79375 0.37957,-0.2906 1.02092,-2.05784 1.19858,-3.3027 0.10348,-0.72508 0.47469,-2.07958 0.8249,-3.01001 1.74159,-4.62697 1.93504,-17.56784 0.33045,-22.10499 -0.30393,-0.85937 -0.7147,-2.34765 -0.91283,-3.30729 -0.33356,-1.61561 -1.07583,-3.68322 -1.43375,-3.99376 -0.0839,-0.0728 -0.30919,-0.66803 -0.50073,-1.32282 -0.36442,-1.24579 -2.19617,-4.90554 -3.12129,-6.2362 -0.29648,-0.42644 -0.76242,-1.14952 -1.03542,-1.60684 -1.21595,-2.03692 -4.7055,-5.93647 -7.7951,-8.71097 -0.94903,-0.85225 -4.54942,-3.2898312 -4.85918,-3.2898312 -0.0993,0 -0.55952,-0.2797 -1.02275,-0.621554 -0.46323,-0.341856 -1.37802,-0.82802 -2.03287,-1.080365 -0.65484,-0.252344 -1.55155,-0.680642 -1.99267,-0.951773 -0.44113,-0.271131 -1.97593,-0.797964 -3.41066,-1.170739 -1.43474,-0.372775 -3.13085,-0.855079 -3.76915,-1.071787 -2.15894,-0.732979 -8.33361,-1.052621 -13.52577,-0.700184 -4.24959,0.288456 -5.71274,0.525565 -8.12571,1.316789 -0.43656,0.143151 -1.67983,0.463689 -2.762822,0.712305 -1.08299,0.248617 -2.645532,0.795781 -3.472312,1.215921 -0.826781,0.42014 -1.653051,0.76389 -1.836153,0.76389 -0.314081,0 -2.09387,0.984411 -2.37975,1.316257 -0.07276,0.0845 -0.668073,0.3804 -1.322916,0.6576397 -0.654844,0.27725 -1.488282,0.75021 -1.852084,1.05103 -0.363802,0.30082 -0.959114,0.7151115 -1.322916,0.9206615 -1.503255,0.84934 -7.90973,6.94919 -8.168326,7.77738 -0.05419,0.17356 -0.56021,0.87271 -1.124479,1.55366 -0.56427,0.68095 -1.025943,1.41051 -1.025943,1.62125 0,0.21073 -0.175282,0.52862 -0.389515,0.70642 -0.214232,0.1778 -0.686633,0.97226 -1.049779,1.76548 -0.363146,0.79322 -0.892627,1.76853 -1.176623,2.16737 -0.283997,0.39883 -0.771419,1.55371 -1.083162,2.5664 -0.311743,1.01268 -0.722877,2.13889 -0.913632,2.50269 -0.190755,0.36381 -0.473309,1.25678 -0.627898,1.98438 -0.15459,0.7276 -0.593305,2.68266 -0.974922,4.34456 -0.381618,1.66191 -0.820892,4.04316 -0.976164,5.29167 -0.348431,2.80167 -0.128439,11.47667 0.319243,12.58877 0.175741,0.43656 0.591067,2.34294 0.922948,4.2364 0.33188,1.89345 0.844564,3.97705 1.139297,4.63021 0.294733,0.65316 0.732266,1.86418 0.972294,2.69117 0.499217,1.71997 3.83273,8.09138 4.863708,9.2961 0.226378,0.26452 0.65373,0.87576 0.949671,1.35831 0.833627,1.35928 2.054767,3.17346 2.234788,3.3201 0.08932,0.0728 1.307243,1.44198 2.706493,3.04271 1.39925,1.60073 3.064543,3.40718 3.70065,4.01432 0.636107,0.60715 1.275622,1.2298 1.421142,1.38366 0.145521,0.15386 0.859896,0.81631 1.5875,1.4721 0.727604,0.65579 1.680104,1.54198 2.116667,1.9693 0.436562,0.42732 1.382173,1.21955 2.101358,1.76052 0.719182,0.54098 1.433557,1.08419 1.5875,1.20713 1.361943,1.08773 2.014424,1.57349 2.925725,2.17818 0.582084,0.38624 1.772712,1.23755 2.645832,1.8918 0.87313,0.654332 3.23099,4.512972 2.35473,5.385452 -5.823978,13.29832 12.86433,9.35719 11.85916,3.94108 1.03752,-3.1348 2.67802,-5.37111 4.59984,-5.49201 z"
       id="path626"
       sodipodi:nodetypes="sssssssssssssssssssssssssssssssssssssssssssssssssssssssssssssssssssssssssssssssssssssssssssscscsssssssssssssssssssssssssssssssssssssssssssssssssssssssssssssscssccc"
       inkscape:export-filename="C:\Users\Gilli Galli\path2509.png"
       inkscape:export-xdpi="96"
       inkscape:export-ydpi="96" />
  </g>
  <g
     inkscape:groupmode="layer"
     id="layer3"
     inkscape:label="Layer 3" />
</svg>
